<?xml version="1.0" encoding="utf-8"?>
<!-- Generator: Adobe Illustrator 16.0.0, SVG Export Plug-In . SVG Version: 6.00 Build 0)  -->
<!DOCTYPE svg PUBLIC "-//W3C//DTD SVG 1.1//EN" "http://www.w3.org/Graphics/SVG/1.1/DTD/svg11.dtd">
<svg version="1.1" xmlns="http://www.w3.org/2000/svg" xmlns:xlink="http://www.w3.org/1999/xlink" x="0px" y="0px"
	 width="595.28px" height="841.89px" viewBox="0 0 595.28 841.89" enable-background="new 0 0 595.28 841.89" xml:space="preserve">
<g id="Guidelines">
</g>
<g id="Ebene_1" display="none">
	
		<image display="inline" overflow="visible" width="2442" height="1308" xlink:href="AED730B6.jpg"  transform="matrix(0.1437 0 0 0.1437 132 104.2754)">
	</image>
</g>
<g id="Ebene_2">
	<path fill="#D59FD0" stroke="#FFFFFF" stroke-miterlimit="10" d="M374.026,257.281c-0.932-1.022-1.885-2.095-2.249-3.462
		c-0.426-1.598-0.229-3.261-0.204-4.892c0.028-1.935-0.263-3.859-0.696-5.74c-0.363-1.577-0.742-3.259-1.711-4.59
		c-0.486-0.668-1.191-1.33-1.919-1.732c-3.016-1.667-6.632-0.699-9.316,1.118c-0.811,0.549-1.522,1.3-2.352,1.809
		c-0.127,0.078-0.241,0.139-0.349,0.194c-0.42-0.051-0.825-0.092-1.216-0.128c-0.218-0.596-0.023-1.794-0.353-2.669
		c-0.262-0.696-0.761-0.989-1.474-1.065c-3.755-0.404-7.217,2.679-10.685,2.764c-0.525,0.013-0.896,0.247-1.129,0.575
		c-0.214,0.267-0.344,0.601-0.334,0.962c0.023,0.851,0.133,1.664,0.482,2.448c0.401,0.903,1.314,0.666,1.618,1.627
		c0.562,1.775,0.405,4.598,0.537,6.451c0.121,1.695,0.347,3.558,0.026,5.241c-0.175,0.918-1.015,0.806-1.608,1.324
		c-0.508,0.442-0.734,0.917-0.855,1.574c-0.221,1.199,0.774,2.305,1.866,2.652c0.494,0.157,1.014,0.255,1.543,0.318
		c1.598,0.589,3.865,0.376,5.309,0.34c2.217-0.054,4.779-0.109,6.661-1.431c1.752-1.231,1.039-3.766-0.134-5.104
		c-1.199-1.369-1.395-3.186-1.335-4.933c0.039-1.148,0.117-2.304,0.176-3.451c0.139-2.712,2.295-3.765,4.772-3.261
		c1.675,1.16,1.683,3.452,1.699,5.237c0.017,1.824,0.246,3.724-0.309,5.495c-0.24,0.766-0.694,1.68-1.324,2.208
		c-1.402,1.175-0.325,3.026,0.864,3.782c2.46,1.563,4.835,1.36,7.71,1.313C369.843,262.218,377.604,261.21,374.026,257.281z"/>
	<g>
		<path fill="#D59FD0" stroke="#FFFFFF" stroke-miterlimit="10" d="M338.913,232.914c0.968,0.721,2.094,1.241,3.295,1.503
			c4.981,1.089,7.299-5.641,5.538-9.304c-0.575-1.196-2.016-2.168-3.424-2.308c-0.149-0.098-0.33-0.171-0.546-0.211
			c-0.349-0.066-0.72-0.103-1.105-0.115c-0.27-0.021-0.549-0.024-0.86,0.018c-0.006,0-0.013,0.002-0.02,0.003
			c-2.442,0.162-5.204,1.264-6.536,3.084c-0.375,0.511-0.536,1.012-0.563,1.498C333.822,229.687,336.625,231.637,338.913,232.914z"
			/>
		<path fill="#D59FD0" stroke="#FFFFFF" stroke-miterlimit="10" d="M347.211,265.306c-0.074-4.541-4.14-11.422-2.765-16.051
			c0.451-1.522,0.789-3.183,1.427-4.643c1.703-0.728,3.032-2.381,2.766-4.607c-0.644-5.38-13.183-4.771-16.426-3.004
			c-1.904,1.039-0.943,3.58-0.413,5.148c1.011,2.993,0.584,6.207,0.212,9.271c-0.235,1.937-0.007,3.892,0.015,5.834
			c0.013,1.205,0.359,4.636-0.31,5.717c-0.771,1.245-2.781,1.587-4.141,1.456c-1.511-0.145-3.139-0.714-4.657-0.374
			c-1.835,0.411-2.605,2.58-2.642,4.309c-0.059,2.94,1.463,4.156,3.882,5.512c4.41,2.472,16.248,2.765,19.913-1.338
			C345.975,270.407,347.264,268.394,347.211,265.306z"/>
	</g>
	<g>
		<path fill="#D59FD0" stroke="#FFFFFF" stroke-miterlimit="10" d="M335.472,255.767c-3.252-1.718-2.429-4.221-2.429-7.392
			c0-1.73,0.762-5.383,0.569-8.342c0.673-2.824-0.534-4.057-2.581-4.324c-0.031-0.007-0.057-0.023-0.09-0.03
			c-0.172-0.035-0.332-0.034-0.486-0.018c-4.368-0.195-11.702,3.221-13.746,5.265c-2.432,2.432,1.074,3.963,2.947,4.548
			c1.178,0.369,0.762,4.551,0.762,5.401c0,5.146-1.912,2.416-3.201,4.618c-0.879,1.5-0.546,2.807,0.406,4.139
			c3.09,4.326,20.17,8.176,20.17-0.382C337.793,257.52,336.934,256.54,335.472,255.767z"/>
		<path fill="#D59FD0" stroke="#FFFFFF" stroke-miterlimit="10" d="M329.637,223.889c-0.869-1.003-2.515-1.563-3.91-1.328
			c-0.169-0.055-0.363-0.079-0.582-0.061c-0.354,0.028-0.722,0.09-1.097,0.18c-0.266,0.051-0.536,0.121-0.825,0.243
			c-0.006,0.002-0.012,0.005-0.018,0.008c-2.314,0.798-4.689,2.587-5.497,4.694c-0.228,0.592-0.251,1.117-0.149,1.593
			c-0.155,2.742,3.063,3.888,5.604,4.518c1.124,0.441,2.347,0.647,3.575,0.584C331.831,234.062,332.298,226.96,329.637,223.889z"/>
	</g>
	<path fill="#D59FD0" stroke="#FFFFFF" stroke-linejoin="round" stroke-miterlimit="10" d="M290.977,240.759
		c0.906,1.045,1.833,2.141,2.164,3.517c0.387,1.608,0.148,3.266,0.084,4.896c-0.076,1.934,0.168,3.864,0.555,5.756
		c0.323,1.585,0.661,3.276,1.598,4.63c0.469,0.68,1.158,1.358,1.875,1.779c2.975,1.741,6.613,0.862,9.342-0.889
		c0.824-0.529,1.553-1.262,2.395-1.75c0.129-0.075,0.244-0.133,0.354-0.186c0.418,0.061,0.822,0.112,1.213,0.159
		c0.203,0.601-0.021,1.794,0.287,2.677c0.244,0.702,0.734,1.007,1.445,1.101c3.744,0.496,7.281-2.5,10.75-2.5
		c0.525,0,0.902-0.225,1.143-0.546c0.221-0.261,0.359-0.592,0.357-0.954c-0.002-0.852-0.092-1.667-0.422-2.459
		c-0.379-0.912-1.297-0.698-1.578-1.666c-0.518-1.789-0.291-4.607-0.377-6.462c-0.08-1.698-0.26-3.566,0.102-5.24
		c0.197-0.914,1.035-0.781,1.641-1.284c0.52-0.43,0.758-0.898,0.895-1.552c0.25-1.194-0.717-2.324-1.801-2.697
		c-0.49-0.169-1.008-0.28-1.535-0.355c-1.582-0.629-3.854-0.471-5.299-0.471c-2.217,0-4.779-0.009-6.693,1.267
		c-1.781,1.188-1.131,3.739,0.008,5.106c1.166,1.398,1.316,3.22,1.213,4.965c-0.066,1.146-0.174,2.3-0.26,3.446
		c-0.205,2.708-2.387,3.707-4.852,3.143c-1.646-1.201-1.598-3.492-1.57-5.277c0.029-1.824-0.154-3.729,0.443-5.486
		c0.26-0.76,0.736-1.663,1.379-2.175c1.432-1.141,0.4-3.017-0.771-3.802c-2.42-1.624-4.799-1.478-7.676-1.502
		C295.281,235.927,287.497,236.743,290.977,240.759z"/>
	<g>
		<path fill="#F28AB0" d="M194.461,132.453c0,0-1.242,0.775-3.536,2.295c-2.28,1.535-5.612,3.794-9.683,6.853
			c-2.04,1.521-4.27,3.235-6.606,5.197c-2.368,1.919-4.835,4.094-7.399,6.461c-2.565,2.368-5.165,5.002-7.744,7.877
			c-0.627,0.734-1.303,1.442-1.925,2.206c-0.625,0.759-1.258,1.527-1.898,2.305c-1.213,1.599-2.451,3.229-3.598,4.956
			c-4.594,6.862-8.427,15.012-9.076,23.964c-0.041,1.115-0.083,2.238-0.125,3.368c0.064,1.129,0.128,2.266,0.193,3.409
			c0.147,1.138,0.347,2.279,0.509,3.43l0.032,0.216l0.016,0.108c0.049,0.236-0.051-0.201-0.029-0.111l0.116,0.479l0.232,0.959
			c0.155,0.641,0.311,1.283,0.466,1.927c0.082,0.312,0.149,0.667,0.242,0.945l0.283,0.809l0.557,1.627
			c0.311,1.074,0.855,2.225,1.341,3.365l0.737,1.718c0.272,0.565,0.583,1.12,0.872,1.683l0.883,1.689l0.442,0.848l0.505,0.823
			c0.677,1.098,1.356,2.2,2.039,3.306c0.757,1.067,1.518,2.138,2.281,3.213c0.732,1.095,1.606,2.106,2.442,3.147
			c0.857,1.026,1.644,2.109,2.588,3.082c0.912,0.997,1.826,1.997,2.742,3c0.934,0.989,1.945,1.917,2.916,2.883l1.473,1.44
			c0.494,0.479,1.033,0.915,1.547,1.375c1.041,0.911,2.083,1.824,3.128,2.739c8.589,7.075,18.216,13.286,28.437,18.42
			c10.214,5.16,21.008,9.227,31.881,12.435c10.875,3.227,21.866,5.507,32.605,7.088c2.691,0.352,5.351,0.793,8.007,1.063
			c2.657,0.277,5.289,0.551,7.892,0.822c2.604,0.288,5.197,0.372,7.751,0.564c2.557,0.167,5.083,0.36,7.583,0.387
			c2.5,0.067,4.965,0.134,7.393,0.2c2.431,0.066,4.824-0.026,7.18-0.03c2.354-0.046,4.674,0.012,6.947-0.08
			c2.273-0.094,4.505-0.187,6.69-0.277c4.379-0.115,8.559-0.508,12.542-0.806c3.988-0.262,7.755-0.693,11.3-1.076
			c7.107-0.656,13.244-1.696,18.334-2.36c2.551-0.305,4.793-0.775,6.764-1.081c1.967-0.333,3.64-0.617,4.996-0.846
			c2.715-0.459,4.163-0.705,4.163-0.705l0.221,0.976c0,0-1.427,0.357-4.103,1.028c-1.339,0.336-2.99,0.75-4.932,1.236
			c-1.948,0.46-4.165,1.107-6.692,1.612c-5.049,1.042-11.162,2.452-18.269,3.586c-1.774,0.307-3.604,0.623-5.489,0.949
			c-1.886,0.324-3.843,0.526-5.844,0.806c-4.007,0.517-8.216,1.139-12.641,1.493c-2.21,0.21-4.467,0.424-6.767,0.643
			c-2.302,0.207-4.655,0.302-7.047,0.439c-2.394,0.105-4.826,0.299-7.303,0.336s-4.991,0.074-7.541,0.112
			c-10.195-0.007-20.998-0.284-32.092-1.671c-11.097-1.292-22.52-3.301-33.926-6.314c-11.399-3.021-22.743-7.14-33.617-12.357
			c-10.852-5.245-21.295-11.548-30.569-19.186c-1.137-0.983-2.272-1.963-3.404-2.942c-0.561-0.496-1.143-0.965-1.684-1.482
			l-1.616-1.557c-1.067-1.047-2.167-2.051-3.198-3.128c-1.014-1.095-2.025-2.187-3.033-3.275c-1.035-1.061-1.93-2.258-2.883-3.389
			c-0.935-1.149-1.9-2.263-2.738-3.487c-0.862-1.201-1.721-2.398-2.577-3.59c-0.783-1.251-1.563-2.498-2.34-3.74l-0.577-0.934
			l-0.52-0.973l-1.032-1.941c-0.338-0.649-0.694-1.285-1.015-1.941l-0.884-2.012c-0.583-1.345-1.196-2.63-1.663-4.125
			c-0.246-0.724-0.492-1.446-0.737-2.166l-0.361-1.081c-0.113-0.354-0.169-0.653-0.257-0.981c-0.16-0.643-0.319-1.285-0.478-1.924
			l-0.238-0.958l-0.119-0.478c0.002,0.01-0.109-0.508-0.072-0.353l-0.02-0.135l-0.04-0.271c-0.206-1.444-0.434-2.877-0.599-4.308
			c-0.068-1.443-0.136-2.878-0.204-4.304c0.066-1.426,0.133-2.843,0.198-4.25c0.559-5.608,2.071-10.905,4.217-15.609
			c2.116-4.726,4.787-8.898,7.626-12.601c2.836-3.714,5.884-6.942,8.936-9.789c3.057-2.845,6.08-5.371,9.054-7.541
			c5.898-4.406,11.429-7.59,16.033-10.048c2.296-1.241,4.418-2.213,6.25-3.069c1.835-0.851,3.418-1.523,4.719-2.032
			c2.583-1.04,4.013-1.491,4.013-1.491L194.461,132.453z"/>
	</g>
	<g>
		<path fill="#009FE3" d="M194.461,132.453c0,0-1.242,0.775-3.536,2.295c-2.28,1.535-5.612,3.794-9.683,6.853
			c-2.04,1.521-4.27,3.235-6.606,5.197c-2.368,1.919-4.835,4.094-7.399,6.461c-2.565,2.368-5.165,5.002-7.744,7.877
			c-0.627,0.734-1.303,1.442-1.925,2.206c-0.625,0.759-1.258,1.527-1.898,2.305c-1.213,1.599-2.451,3.229-3.598,4.956
			c-4.594,6.862-8.427,15.012-9.076,23.964c-0.041,1.115-0.083,2.238-0.125,3.368c0.064,1.129,0.128,2.266,0.193,3.409
			c0.147,1.138,0.347,2.279,0.509,3.43l0.032,0.216l0.016,0.108c0.049,0.236-0.051-0.201-0.029-0.111l0.116,0.479l0.232,0.959
			c0.155,0.641,0.311,1.283,0.466,1.927c0.082,0.312,0.149,0.667,0.242,0.945l0.283,0.809l0.557,1.627
			c0.311,1.074,0.855,2.225,1.341,3.365l0.737,1.718c0.272,0.565,0.583,1.12,0.872,1.683l0.883,1.689l0.442,0.848l0.505,0.823
			c0.677,1.098,1.356,2.2,2.039,3.306c0.757,1.067,1.518,2.138,2.281,3.213c0.732,1.095,1.606,2.106,2.442,3.147
			c0.857,1.026,1.644,2.109,2.588,3.082c0.912,0.997,1.826,1.997,2.742,3c0.934,0.989,1.945,1.917,2.916,2.883l1.473,1.44
			c0.494,0.479,1.033,0.915,1.547,1.375c1.041,0.911,2.083,1.824,3.128,2.739c8.589,7.075,18.216,13.286,28.437,18.42
			c10.214,5.16,21.008,9.227,31.881,12.435c10.875,3.227,21.866,5.507,32.605,7.088c2.691,0.352,5.351,0.793,8.007,1.063
			c2.657,0.277,5.289,0.551,7.892,0.822c2.604,0.288,5.197,0.372,7.751,0.564c2.557,0.167,5.083,0.36,7.583,0.387
			c2.5,0.067,4.965,0.134,7.393,0.2c2.431,0.066,4.824-0.026,7.18-0.03c2.354-0.046,4.674,0.012,6.947-0.08
			c2.273-0.094,4.505-0.187,6.69-0.277c4.379-0.115,8.559-0.508,12.542-0.806c3.988-0.262,7.755-0.693,11.3-1.076
			c7.107-0.656,13.244-1.696,18.334-2.36c2.551-0.305,4.793-0.775,6.764-1.081c1.967-0.333,3.64-0.617,4.996-0.846
			c2.715-0.459,4.163-0.705,4.163-0.705l0.221,0.976c0,0-1.427,0.357-4.103,1.028c-1.339,0.336-2.99,0.75-4.932,1.236
			c-1.948,0.46-4.165,1.107-6.692,1.612c-5.049,1.042-11.162,2.452-18.269,3.586c-1.774,0.307-3.604,0.623-5.489,0.949
			c-1.886,0.324-3.843,0.526-5.844,0.806c-4.007,0.517-8.216,1.139-12.641,1.493c-2.21,0.21-4.467,0.424-6.767,0.643
			c-2.302,0.207-4.655,0.302-7.047,0.439c-2.394,0.105-4.826,0.299-7.303,0.336s-4.991,0.074-7.541,0.112
			c-10.195-0.007-20.998-0.284-32.092-1.671c-11.097-1.292-22.52-3.301-33.926-6.314c-11.399-3.021-22.743-7.14-33.617-12.357
			c-10.852-5.245-21.295-11.548-30.569-19.186c-1.137-0.983-2.272-1.963-3.404-2.942c-0.561-0.496-1.143-0.965-1.684-1.482
			l-1.616-1.557c-1.067-1.047-2.167-2.051-3.198-3.128c-1.014-1.095-2.025-2.187-3.033-3.275c-1.035-1.061-1.93-2.258-2.883-3.389
			c-0.935-1.149-1.9-2.263-2.738-3.487c-0.862-1.201-1.721-2.398-2.577-3.59c-0.783-1.251-1.563-2.498-2.34-3.74l-0.577-0.934
			l-0.52-0.973l-1.032-1.941c-0.338-0.649-0.694-1.285-1.015-1.941l-0.884-2.012c-0.583-1.345-1.196-2.63-1.663-4.125
			c-0.246-0.724-0.492-1.446-0.737-2.166l-0.361-1.081c-0.113-0.354-0.169-0.653-0.257-0.981c-0.16-0.643-0.319-1.285-0.478-1.924
			l-0.238-0.958l-0.119-0.478c0.002,0.01-0.109-0.508-0.072-0.353l-0.02-0.135l-0.04-0.271c-0.206-1.444-0.434-2.877-0.599-4.308
			c-0.068-1.443-0.136-2.878-0.204-4.304c0.066-1.426,0.133-2.843,0.198-4.25c0.559-5.608,2.071-10.905,4.217-15.609
			c2.116-4.726,4.787-8.898,7.626-12.601c2.836-3.714,5.884-6.942,8.936-9.789c3.057-2.845,6.08-5.371,9.054-7.541
			c5.898-4.406,11.429-7.59,16.033-10.048c2.296-1.241,4.418-2.213,6.25-3.069c1.835-0.851,3.418-1.523,4.719-2.032
			c2.583-1.04,4.013-1.491,4.013-1.491L194.461,132.453z"/>
	</g>
	<g>
		<path fill="#009FE3" d="M420.768,263.665c0,0,1.242-0.775,3.536-2.295c2.279-1.535,5.611-3.794,9.683-6.853
			c2.039-1.521,4.269-3.235,6.605-5.197c2.367-1.919,4.836-4.094,7.399-6.461c2.565-2.368,5.165-5.002,7.744-7.877
			c0.627-0.734,1.304-1.442,1.926-2.206c0.625-0.759,1.258-1.527,1.897-2.305c1.214-1.598,2.452-3.229,3.598-4.956
			c4.594-6.862,8.428-15.012,9.076-23.964c0.042-1.115,0.083-2.238,0.125-3.368c-0.063-1.129-0.128-2.266-0.192-3.41
			c-0.147-1.138-0.347-2.279-0.51-3.43l-0.031-0.216l-0.016-0.108c-0.05-0.235,0.051,0.201,0.028,0.111l-0.116-0.479l-0.232-0.959
			c-0.154-0.64-0.311-1.283-0.466-1.927c-0.081-0.312-0.149-0.667-0.241-0.945l-0.283-0.809l-0.558-1.627
			c-0.311-1.074-0.854-2.226-1.34-3.365l-0.737-1.719c-0.272-0.565-0.583-1.12-0.872-1.683l-0.884-1.688l-0.441-0.848l-0.505-0.823
			c-0.677-1.098-1.356-2.2-2.039-3.306c-0.757-1.067-1.518-2.138-2.28-3.213c-0.732-1.095-1.606-2.106-2.442-3.147
			c-0.856-1.026-1.644-2.109-2.588-3.082c-0.911-0.997-1.825-1.997-2.742-3c-0.934-0.989-1.944-1.917-2.916-2.884l-1.474-1.44
			c-0.493-0.479-1.032-0.915-1.547-1.375c-1.04-0.911-2.083-1.824-3.128-2.739c-8.59-7.075-18.217-13.286-28.437-18.42
			c-10.215-5.16-21.008-9.227-31.882-12.435c-10.875-3.227-21.865-5.507-32.605-7.087c-2.691-0.352-5.351-0.793-8.007-1.064
			c-2.656-0.277-5.288-0.551-7.892-0.822c-2.604-0.288-5.197-0.371-7.752-0.564c-2.557-0.167-5.082-0.36-7.582-0.387
			c-2.5-0.067-4.965-0.134-7.394-0.2c-2.43-0.066-4.824,0.026-7.18,0.03c-2.354,0.046-4.674-0.012-6.947,0.08
			c-2.274,0.094-4.505,0.187-6.691,0.277c-4.378,0.115-8.558,0.508-12.542,0.806c-3.988,0.262-7.754,0.693-11.3,1.076
			c-7.107,0.656-13.244,1.696-18.334,2.36c-2.55,0.305-4.792,0.775-6.763,1.081c-1.967,0.333-3.64,0.617-4.996,0.846
			c-2.715,0.459-4.163,0.705-4.163,0.705l-0.222-0.976c0,0,1.427-0.357,4.103-1.028c1.339-0.336,2.991-0.75,4.932-1.236
			c1.948-0.46,4.164-1.107,6.692-1.612c5.048-1.042,11.162-2.452,18.269-3.586c1.773-0.307,3.604-0.623,5.489-0.949
			c1.885-0.324,3.843-0.526,5.844-0.806c4.007-0.517,8.215-1.139,12.64-1.493c2.21-0.21,4.467-0.424,6.767-0.643
			c2.301-0.207,4.655-0.301,7.047-0.439c2.394-0.105,4.826-0.299,7.302-0.336c2.477-0.037,4.991-0.074,7.541-0.112
			c10.195,0.007,20.997,0.284,32.092,1.671c11.097,1.292,22.52,3.301,33.926,6.314c11.399,3.021,22.742,7.14,33.617,12.357
			c10.852,5.245,21.295,11.548,30.569,19.186c1.137,0.982,2.271,1.963,3.404,2.941c0.561,0.496,1.143,0.965,1.684,1.482l1.616,1.557
			c1.067,1.047,2.168,2.051,3.197,3.128c1.015,1.095,2.025,2.187,3.033,3.275c1.035,1.061,1.93,2.258,2.883,3.389
			c0.935,1.149,1.9,2.264,2.738,3.487c0.861,1.201,1.721,2.398,2.576,3.59c0.783,1.251,1.563,2.498,2.341,3.74l0.577,0.934
			l0.519,0.973l1.033,1.941c0.338,0.648,0.693,1.285,1.014,1.941l0.885,2.012c0.583,1.345,1.196,2.63,1.663,4.125
			c0.246,0.724,0.491,1.446,0.736,2.166l0.361,1.08c0.112,0.354,0.169,0.653,0.256,0.981c0.16,0.644,0.319,1.285,0.479,1.924
			l0.238,0.958l0.118,0.478c-0.002-0.009,0.109,0.508,0.073,0.353l0.02,0.135l0.04,0.271c0.205,1.444,0.435,2.876,0.599,4.308
			c0.068,1.444,0.137,2.878,0.204,4.304c-0.067,1.426-0.133,2.842-0.199,4.25c-0.559,5.608-2.07,10.905-4.217,15.608
			c-2.116,4.726-4.787,8.898-7.626,12.601c-2.836,3.714-5.884,6.942-8.936,9.789c-3.058,2.845-6.08,5.371-9.054,7.541
			c-5.899,4.406-11.43,7.59-16.033,10.048c-2.296,1.241-4.418,2.213-6.25,3.069c-1.836,0.851-3.419,1.523-4.719,2.032
			c-2.583,1.04-4.013,1.491-4.013,1.491L420.768,263.665z"/>
	</g>
	<path fill="#D59FD0" stroke="#FFFFFF" stroke-miterlimit="10" d="M461.226,205.101c-1.049-2.494-3.314-6.049-5.63-7.593
		c-6.223-4.148-10.026-12.041-18.349-12.403c-2.091-0.091-6.198,0.571-7.405,2.633c-1.008,1.72-0.363,4.019-0.104,6.019
		c-3.399,0.274-6.688,0.275-10.156-0.757c-0.043-0.066-0.087-0.134-0.132-0.202c0.672-2.365,1.268-4.815,1.384-7.131
		c0.008-0.163-0.002-0.313-0.017-0.458c0.007-0.063,0.015-0.126,0.017-0.188c3.203-0.055,6.414-0.715,8.563-3.093
		c2.816-3.115-0.705-8.339-2.963-10.696c-4.636-4.839-9.25-9.701-13.962-14.467c-3.576-3.617-7.215-8.634-12.521-9.687
		c-4.597-0.912-9.384,2.281-8.508,7.466c0.421,2.492,2.442,4.306,2.813,6.865c0.769,5.305-0.764,11.048-0.725,16.432
		c0.066,9.156-2.337,14.347-7.816,21.522c-2.93,3.833-6.364,5.448-10.715,7.226c-0.825,0.337-1.587,0.766-2.34,1.204
		c-2.828-1.361-5.941-2.229-8.429-1.155c-1.945,0.839-2.782,2.082-2.946,3.493c-0.495,0.401-0.821,1.019-0.787,1.869
		c0.08,1.992,0.442,3.673,1.775,5.232c5.713,6.679,11.25,13.443,18.463,18.594c4.281,3.057,7.897,8.803,13.554,9.049
		c5.629,0.245,6.862-2.757,6.542-7.875c-0.143-2.28-0.914-4.523-2.032-6.628c0.282-0.378,0.571-0.75,0.866-1.118
		c3.474-2.715,6.418-6.564,8.991-9.992c1.685-2.244,3.65-4.494,5.729-6.637c4.626-1.76,9.824-2.258,14.61-3.214
		c3.313-0.662,6.823-1.244,10.21-1.244c1.149,0,2.458,0.029,3.789,0.013c5.136,2.767,9.817,6.57,15.676,3.276
		C461.311,209.973,462.445,208,461.226,205.101z"/>
	<path fill="#009FE3" stroke="#FFFFFF" stroke-miterlimit="10" d="M384.077,193.616c1.976-7.734-2.225-13.464-8.356-17.84
		c-1.983-1.416-4.206-2.605-6.221-4.021c-0.154-0.109-0.307-0.195-0.46-0.288c1.235-0.792,2.394-1.785,3.449-2.878
		c3.677-1.594,5.717-4.458,7.915-7.694c5.474-8.056-0.651-15.822-7.243-20.527c-6.511-4.646-14.692-5.193-22.431-5.52
		c-8.193-0.346-16.027-1.615-24.138-2.727c-2.32-0.317-5.245-0.2-7.982-0.505c-2.161-0.24-4.114-2.211-6.466-1.987
		c-3.579,0.343-5.119,4.143-5.01,7.299c0.058,1.681,0.556,2.937,1.594,4.262c0.61,0.777,4.479,3.048,4.538,3.677
		c0.102,1.083,0.321,2.194,0.567,3.288c0.017,1.92,0.057,3.838,0.102,5.741c-0.19,5.26-0.921,10.476-1.683,15.677
		c-0.644,4.402-0.702,9.356-1.997,13.617c-0.606,1.995-0.913,4.059-1.58,6.061c-0.567,1.698-0.777,4.376-1.785,5.79
		c-0.192,0.271-0.37,0.567-0.549,0.86c-2.345-0.496-5.202-0.263-6.368,1.37c-2.672,3.744-0.706,7.1,2.177,10.241
		c4.146,4.519,11.479,4.728,17.094,5.439c11.229,1.424,22.583,2.454,33.847,3.587c7.095,0.714,15.31,0.53,20.553-5.198
		C378.137,206.43,382.408,200.134,384.077,193.616z M346.458,180.481c0.494,0.165,0.877,0.319,1.071,0.439
		c2.906,1.791,3.822,5.79,3.635,8.968c-0.137,2.303-1.338,7.804-3.353,9.111c-0.632,0.41-1.331,0.718-2.116,0.884
		c-1.273,0.268-2.584,0.413-3.895,0.527c-2.154-2.669-2.74-6.993-2.866-10.216c-0.092-2.339-0.625-7.807,1.095-10.665
		C340.4,178.912,344.396,179.792,346.458,180.481z M341.985,148.033c-0.01-0.085,8.702,2.755,9.742,4.638
		c2.302,4.165,0.201,8.671-3.529,11.04c-1.838,1.167-4.246,2.221-6.605,2.437c0.364-1.302,0.938-2.529,0.983-3.906
		c0.063-1.93,0.319-3.79,0.226-5.715C342.662,153.652,342.294,150.853,341.985,148.033z"/>
	<path fill="#D59FD0" stroke="#FFFFFF" stroke-miterlimit="10" d="M327.533,193.146c-1.207-1.207-3.474-1.363-5.034-1.723
		c-2.769-0.639-3.803-0.959-5.507-3.518c-0.184-0.275-0.397-0.482-0.626-0.653c-0.041-0.071-0.082-0.145-0.123-0.216
		c-2.538-4.387-4.723-9.048-7.437-13.32c-3.503-5.514-7.412-10.895-11.233-16.193c-2.147-2.978-4.841-5.534-7.205-8.336
		c-7.097-8.413-17.45-19.997-29.772-14.942c-5.16,2.116-6.619,8.211-6.757,13.313c-0.049,1.802-0.069,3.653,0.183,5.44
		c0.308,2.188,1.042,4.023,0.653,6.267c-1.525,8.804-5.119,17.09-6.705,25.879c-0.919,5.093-1.227,10.3-2.668,15.291
		c-1.261,4.365-3.468,8.594-3.468,13.233v0.667c0,1.363,1.137,2.5,2.5,2.5c4.799,0,9.732-0.27,14.351-1.677
		c3.297-1.005,7.705-3.085,7.79-7.086c0.076-3.548-4.302-4.899-5.549-7.52c-2.895-6.091,15.205-7.304,18.408-7.717
		c1.45-0.187,5.671-0.617,8.078,0.127c3.051,0.946-4.183,7.485-4.906,8.891c-2.794,5.437,2.826,7.23,7.226,7.648
		c2.687,0.254,5.483,0.077,8.175-0.082c2.761-0.163,7.821-0.353,12.43-1.384c0.686-0.107,1.313-0.212,1.829-0.29
		c5.536-0.83,9.923-2.634,14.082-6.393C328.537,199.282,330.002,195.615,327.533,193.146z M275.669,178.343
		c-0.509,0.094-1.024,0.199-1.543,0.311c-3.259-0.098-6.685,0.346-9.771,1.332c-0.128-2.791-0.128-5.34,0.81-8.32
		c0.661-2.098,1.625-6.197,4.723-4.222c1.694,1.081,3.329,2.291,4.872,3.575c1.571,1.308,2.455,3.253,3.808,4.75
		C280.821,178.263,277.617,177.982,275.669,178.343z"/>
	<path fill="#009FE3" stroke="#FFFFFF" stroke-miterlimit="10" d="M253.166,188.5c-2.885-7.443-9.632-9.667-17.166-9.667
		c-2.437,0-4.936,0.323-7.4,0.341c-0.189,0.001-0.362,0.02-0.542,0.033c0.545-1.362,0.912-2.842,1.136-4.346
		c2.066-3.434,2.063-6.949,1.973-10.861c-0.225-9.737-9.722-12.5-17.821-12.5c-7.998,0-14.975,4.308-21.463,8.538
		c-6.87,4.478-13.982,7.996-21.23,11.803c-2.074,1.089-4.385,2.884-6.791,4.226c-1.898,1.06-4.634,0.59-6.418,2.139
		c-2.714,2.358-1.759,6.346,0.163,8.852c1.024,1.334,2.159,2.067,3.774,2.542c0.947,0.278,5.416-0.12,5.829,0.358
		c0.711,0.823,1.537,1.599,2.372,2.346c1.128,1.553,2.275,3.09,3.417,4.613c2.9,4.392,5.336,9.062,7.738,13.738
		c2.033,3.957,4.864,8.024,6.285,12.244c0.665,1.976,1.615,3.833,2.235,5.852c0.525,1.711,1.911,4.013,1.911,5.749
		c0,0.333,0.028,0.677,0.052,1.019c-2.194,0.958-4.386,2.808-4.386,4.814c0,4.601,3.548,6.189,7.721,7.072
		c6,1.269,12.089-2.82,17.073-5.503c9.967-5.365,19.808-11.123,29.635-16.744c6.188-3.54,12.768-8.461,13.708-16.17
		C255.774,202.381,255.594,194.776,253.166,188.5z M214.915,199.664c0.499-0.153,0.9-0.25,1.128-0.265
		c3.406-0.231,6.475,2.492,8.167,5.188c1.227,1.954,3.446,7.129,2.565,9.364c-0.276,0.7-0.666,1.357-1.209,1.949
		c-0.881,0.958-1.864,1.837-2.864,2.692c-3.305-0.921-6.292-4.1-8.267-6.65c-1.434-1.851-5.045-5.991-5.306-9.316
		C209.073,201.905,212.837,200.3,214.915,199.664z M192.424,175.85c-0.057-0.064,8.684-2.812,10.624-1.884
		c4.293,2.054,5.201,6.941,3.541,11.036c-0.818,2.018-2.167,4.274-3.961,5.821c-0.46-1.271-0.706-2.604-1.47-3.751
		c-1.07-1.606-1.941-3.27-3.136-4.782C196.239,180.032,194.313,177.967,192.424,175.85z"/>
	<path fill="#D59FD0" stroke="#FFFFFF" stroke-linejoin="round" stroke-miterlimit="10" d="M295.461,236.723
		c-3.916-2.138-6.556,1.92-9.681,3.516c-0.221-1.913,0.594-4.694-2.144-4.985c-5.425-0.577-9.787,2.963-13.894,5.701
		c-1.602,1.067-0.101,3.667,1.514,2.591c0.217-0.145,0.418-0.314,0.619-0.478c-1.803,1.47,0.618,4.085,1.178,5.594
		c0.681,1.835,0.053,5.69-2.388,6.174c-0.623,0.124-1.166,0.591-1.166,1.413c0,4.567,5.841,6.824,9.526,7.458
		c3.611,0.622,11.892,0.516,11.442-5.176c-0.196-2.488-2.348-1.988-3.772-3.075c-1.29-0.985-1.051-2.361-0.83-4.003
		c0.23-1.714,0.391-3.484,0.757-5.167c-0.092,0.421,5.253,2.07,6.002,2.007c2.331-0.194,4.81-1.445,5.47-3.857
		C298.948,241.314,298.43,238.344,295.461,236.723z"/>
	<path fill="#D59FD0" stroke="#FFFFFF" stroke-miterlimit="10" d="M273.734,240.512c-1.476-2.91-4.29-4.862-8.703-4.543
		c-2.449,0.178-4.483,1.485-6.711,2.325c-0.312-0.543-0.32-1.139-0.32-1.826c0-2.463,1.239-7-0.536-9.092
		c-1.923-2.265-5.238-0.067-7.457,0.428c-1.868,0.417-3.835,1.125-5.648,1.76c-4.473,1.566-2.35,3.981,0.247,6.052
		c3.776,3.011,2.827,12.599,2.286,16.814c-0.284,2.21-2.18,4.399-1.589,6.688c0.17,0.66,0.785,1.081,1.446,1.101
		c0.949,0.03,1.639-0.117,2.297-0.473c-0.038,0.02,2.977,1.933,3.35,2.08c1.236,0.488,2.534,0.727,3.85,0.866
		c5.799,0.616,11.722-1.741,15.391-6.256C275.037,252.251,276.091,245.159,273.734,240.512z M258.202,245.623
		c0.853-1.469,2.171-2.222,3.502,0.134c1.296,2.292,2.386,6.958,0.75,9.486c-0.656,1.014-1.627,2.044-2.854,2.311
		c-2.699,0.587-2.101-2.993-2.101-4.804c0-1.299-0.25-2.558-0.25-3.872C257.252,247.969,257.618,246.628,258.202,245.623z"/>
	<g>
		<path fill="#D59FD0" d="M425.941,244.923c0,0-0.01,0.223-0.026,0.642c0.001,0.194-0.028,0.484-0.083,0.848
			c-0.038,0.364-0.114,0.756-0.225,1.174c-0.211,0.848-0.566,1.868-1.212,2.913c-0.631,1.048-1.544,2.129-2.783,3.012
			c-1.234,0.881-2.805,1.536-4.54,1.751c-0.452,0.043-0.832,0.07-1.365,0.062c-0.398-0.029-0.761-0.028-1.273-0.125
			c-0.971-0.14-1.819-0.437-2.688-0.843c-1.709-0.82-3.206-2.176-4.219-3.856c-1.023-1.678-1.54-3.664-1.526-5.632
			c0.045-0.557,0.034-0.88,0.138-1.439c0.066-0.519,0.196-0.99,0.327-1.459c0.302-0.929,0.691-1.828,1.228-2.629
			c1.053-1.611,2.538-2.89,4.204-3.638c1.637-0.794,3.506-1,5.093-0.843c1.738,0.197,3.199,0.808,4.438,1.622
			c1.22,0.828,2.149,1.848,2.813,2.851c0.678,1,1.063,2,1.292,2.836c0.123,0.418,0.207,0.798,0.251,1.134
			c0.062,0.333,0.102,0.618,0.109,0.852c0.031,0.466,0.048,0.715,0.048,0.715L425.941,244.923z M423.667,244.868
			c0,0-0.005-0.198-0.014-0.568c0.005-0.187-0.018-0.414-0.055-0.68c-0.021-0.269-0.074-0.573-0.158-0.91
			c-0.156-0.673-0.416-1.486-0.898-2.333c-0.476-0.847-1.171-1.732-2.127-2.477c-0.936-0.749-2.231-1.29-3.54-1.486
			c-0.763-0.093-1.438-0.104-2.178,0.029c-0.728,0.099-1.444,0.343-2.134,0.664c-1.368,0.676-2.566,1.792-3.375,3.165
			c-0.415,0.682-0.698,1.44-0.914,2.21c-0.09,0.394-0.18,0.787-0.209,1.157c-0.066,0.32-0.049,0.896-0.066,1.229
			c0.04,1.607,0.504,3.185,1.355,4.493c0.85,1.304,2.035,2.342,3.361,2.947c0.648,0.294,1.381,0.525,2.01,0.599
			c0.279,0.066,0.718,0.069,1.104,0.088c0.253-0.005,0.653-0.022,0.963-0.058c1.313-0.177,2.499-0.676,3.439-1.357
			c0.937-0.69,1.647-1.513,2.155-2.315c0.517-0.803,0.805-1.596,0.979-2.258c0.096-0.337,0.157-0.628,0.185-0.87
			c0.044-0.236,0.077-0.458,0.081-0.684c0.023-0.418,0.035-0.641,0.035-0.641L423.667,244.868z"/>
	</g>
	<text transform="matrix(1.1729 0 0 1 409.2715 250.2349)" fill="#D59FD0" font-family="'BookmanOldStyle'" font-size="14.6922">R</text>
</g>
<g id="_x3C_Ebene_x3E_">
</g>
</svg>
